<svg width="40" height="40" viewBox="0 0 40 40" fill="none" xmlns="http://www.w3.org/2000/svg">
<path d="M21.1718 21.171V0C9.83164 0.594819 0.595613 9.83077 0.000793457 21.171H21.1718ZM16.4845 17.6555H14.1408V15.3119H16.4845V17.6555ZM9.45353 10.6246H11.7972V12.9682H9.45353V10.6246ZM15.3127 10.1393L16.9697 11.7964L10.6254 18.1407L8.96832 16.4837L15.3127 10.1393Z" fill="url(#paint0_linear_1_7585)"/>
<path d="M21.1718 23.5147H7.15454C7.72561 30.9828 13.7037 36.9609 21.1719 37.532L21.1718 23.5147Z" fill="url(#paint1_linear_1_7585)"/>
<path d="M23.5154 4.6873C23.5154 4.93901 23.5154 40.2751 23.5154 39.9984C32.6613 39.391 39.9991 31.523 39.9991 22.2258C39.9991 12.9278 32.6635 5.29267 23.5154 4.6873ZM30.5464 21.171C32.4849 21.171 34.0619 22.748 34.0619 24.6865C34.0619 26.2122 33.0793 27.5007 31.7182 27.9861V30.5456H29.3746V27.9861C28.0135 27.5007 27.0309 26.2122 27.0309 24.6865H29.3746C29.3746 25.333 29.8999 25.8583 30.5464 25.8583C31.1929 25.8583 31.7182 25.333 31.7182 24.6865C31.7182 24.0399 31.1929 23.5147 30.5464 23.5147C28.6079 23.5147 27.0309 21.9377 27.0309 19.9992C27.0309 18.4735 28.0135 17.1849 29.3746 16.6995V14.14H31.7182V16.6995C33.0793 17.1849 34.0619 18.4735 34.0619 19.9992H31.7182C31.7182 19.3526 31.1929 18.8273 30.5464 18.8273C29.8999 18.8273 29.3746 19.3526 29.3746 19.9992C29.3746 20.6457 29.8999 21.171 30.5464 21.171Z" fill="url(#paint2_linear_1_7585)"/>
<defs>
<linearGradient id="paint0_linear_1_7585" x1="0.000793457" y1="0" x2="21.6635" y2="0.51566" gradientUnits="userSpaceOnUse">
<stop stop-color="#28CCC2"/>
<stop offset="1" stop-color="#2887CC"/>
</linearGradient>
<linearGradient id="paint1_linear_1_7585" x1="7.15454" y1="23.5147" x2="21.4974" y2="23.8561" gradientUnits="userSpaceOnUse">
<stop stop-color="#28CCC2"/>
<stop offset="1" stop-color="#2887CC"/>
</linearGradient>
<linearGradient id="paint2_linear_1_7585" x1="23.5154" y1="4.6873" x2="40.3894" y2="4.8748" gradientUnits="userSpaceOnUse">
<stop stop-color="#28CCC2"/>
<stop offset="1" stop-color="#2887CC"/>
</linearGradient>
</defs>
</svg>
