<svg width="60" height="26" viewBox="0 0 60 26" fill="none" xmlns="http://www.w3.org/2000/svg">
<rect x="0.5" y="0.5" width="59" height="25" rx="3.5" stroke="url(#paint0_linear_1_430)"/>
<path d="M15.3242 16.707C14.6016 16.9414 13.8203 17.0586 12.9805 17.0586C10.0508 17.0586 8.58594 15.6035 8.58594 12.6934C8.58594 9.93945 10.0508 8.5625 12.9805 8.5625C13.8203 8.5625 14.6016 8.67969 15.3242 8.91406V9.85156C14.6016 9.57812 13.8594 9.44141 13.0977 9.44141C10.8125 9.44141 9.66992 10.5254 9.66992 12.6934C9.66992 15.0176 10.8125 16.1797 13.0977 16.1797C13.8594 16.1797 14.6016 16.043 15.3242 15.7695V16.707ZM17.24 17V8.62109H18.324V11.5156C18.8474 11.0703 19.4861 10.8477 20.24 10.8477C21.7752 10.8477 22.5427 11.6113 22.5427 13.1387V17H21.4587V13.1211C21.4587 12.207 21.0037 11.75 20.0935 11.75C19.4724 11.75 18.8826 12.0098 18.324 12.5293V17H17.24ZM25.3374 13.9004C25.3374 15.3809 25.9527 16.1211 27.1831 16.1211C28.4136 16.1211 29.0288 15.3809 29.0288 13.9004C29.0288 12.4512 28.4136 11.7266 27.1831 11.7266C25.9527 11.7266 25.3374 12.4512 25.3374 13.9004ZM24.2534 13.9238C24.2534 11.873 25.23 10.8477 27.1831 10.8477C29.1362 10.8477 30.1128 11.873 30.1128 13.9238C30.1128 15.9707 29.1362 16.9941 27.1831 16.9941C25.2378 16.9941 24.2612 15.9707 24.2534 13.9238ZM32.6087 13.9004C32.6087 15.3809 33.2239 16.1211 34.4544 16.1211C35.6848 16.1211 36.3001 15.3809 36.3001 13.9004C36.3001 12.4512 35.6848 11.7266 34.4544 11.7266C33.2239 11.7266 32.6087 12.4512 32.6087 13.9004ZM31.5247 13.9238C31.5247 11.873 32.5012 10.8477 34.4544 10.8477C36.4075 10.8477 37.3841 11.873 37.3841 13.9238C37.3841 15.9707 36.4075 16.9941 34.4544 16.9941C32.5091 16.9941 31.5325 15.9707 31.5247 13.9238ZM39.0303 16.707V15.7695C39.753 16.0039 40.4834 16.1211 41.2217 16.1211C42.2022 16.1211 42.6924 15.8281 42.6924 15.2422C42.6924 14.6953 42.3506 14.4219 41.667 14.4219H40.7881C39.46 14.4219 38.7959 13.8164 38.7959 12.6055C38.7959 11.4336 39.6495 10.8477 41.3565 10.8477C42.0909 10.8477 42.8194 10.9453 43.542 11.1406V12.0781C42.8194 11.8438 42.0909 11.7266 41.3565 11.7266C40.333 11.7266 39.8213 12.0195 39.8213 12.6055C39.8213 13.1523 40.1436 13.4258 40.7881 13.4258H41.667C43.0733 13.4258 43.7764 14.0312 43.7764 15.2422C43.7764 16.4141 42.9248 17 41.2217 17C40.4834 17 39.753 16.9023 39.0303 16.707ZM48.0184 10.8477C49.7684 10.8477 50.6434 11.7129 50.6434 13.4434C50.6434 13.6895 50.6258 13.9531 50.5906 14.2344H46.2723C46.2723 15.4922 47.0066 16.1211 48.4754 16.1211C49.1746 16.1211 49.7957 16.043 50.3387 15.8867V16.7656C49.7957 16.9219 49.1355 17 48.3582 17C46.2449 17 45.1883 15.9512 45.1883 13.8535C45.1883 11.8496 46.1316 10.8477 48.0184 10.8477ZM46.2723 13.332H49.6004C49.577 12.2539 49.0496 11.7148 48.0184 11.7148C46.9246 11.7148 46.3426 12.2539 46.2723 13.332Z" fill="#555555"/>
<defs>
<linearGradient id="paint0_linear_1_430" x1="0" y1="0" x2="61.2434" y2="3.36426" gradientUnits="userSpaceOnUse">
<stop stop-color="#28CCC2"/>
<stop offset="1" stop-color="#2887CC"/>
</linearGradient>
</defs>
</svg>
