<svg width="40" height="40" viewBox="0 0 40 40" fill="none" xmlns="http://www.w3.org/2000/svg">
<path fill-rule="evenodd" clip-rule="evenodd" d="M23.8971 15.622C22.8 14.5249 21.2843 13.8463 19.6102 13.8463C17.9359 13.8463 16.4202 14.5249 15.3232 15.622C14.2262 16.719 13.5476 18.2347 13.5476 19.9089C13.5476 21.5831 14.2262 23.0988 15.3232 24.1959C16.4202 25.2929 17.9359 25.9715 19.6102 25.9715C21.2844 25.9715 22.8 25.2929 23.8971 24.1959C24.9941 23.0988 25.6727 21.5831 25.6727 19.9089C25.6727 18.2347 24.9941 16.719 23.8971 15.622ZM26.5813 3.79562C25.0445 3.12164 23.3952 2.65992 21.6708 2.44711V10.6813C22.3119 10.8312 22.9269 11.0448 23.5086 11.315C24.0904 11.5852 24.6415 11.9133 25.1547 12.2917L30.9303 6.51609C29.6298 5.41125 28.1666 4.49086 26.5813 3.79562ZM37.2712 14.3169C37.8755 16.0983 38.2031 18.0096 38.2031 20C38.2031 21.8482 37.9205 23.6283 37.3964 25.2995C36.9195 26.8199 36.2441 28.2505 35.4009 29.5605L29.4025 23.562C29.604 23.0605 29.7639 22.5395 29.8782 22.0031C30.0165 21.3542 30.0892 20.684 30.0892 19.9999C30.0892 19.1557 29.9785 18.3339 29.7707 17.5485C29.5935 16.8786 29.3454 16.2373 29.0349 15.6333L34.9265 9.74172C35.9175 11.1311 36.7125 12.6695 37.2712 14.3169ZM26.9443 36.0387C28.6451 35.2463 30.1975 34.1931 31.5497 32.9312L25.8039 27.1854C25.2284 27.6918 24.5905 28.1308 23.9028 28.4895C23.2042 28.854 22.4558 29.1348 21.6708 29.3186V37.5529C23.5305 37.3233 25.3039 36.803 26.9443 36.0387ZM6.42016 31.9261C3.54852 28.7834 1.79688 24.5976 1.79688 20C1.79688 15.4024 3.54852 11.2166 6.42016 8.07383C9.19195 5.04031 13.0061 2.97594 17.2952 2.44719V10.6815C15.2355 11.1634 13.4316 12.3104 12.1226 13.8838C10.7415 15.5439 9.91078 17.676 9.91078 20C9.91078 22.324 10.7414 24.4561 12.1226 26.1162C13.4316 27.6895 15.2355 28.8366 17.2952 29.3184V37.5527C13.0061 37.0241 9.19195 34.9596 6.42016 31.9261Z" fill="url(#paint0_linear_1_7545)"/>
<defs>
<linearGradient id="paint0_linear_1_7545" x1="1.79688" y1="2.44711" x2="39.047" y2="3.36666" gradientUnits="userSpaceOnUse">
<stop stop-color="#28CCC2"/>
<stop offset="1" stop-color="#2887CC"/>
</linearGradient>
</defs>
</svg>
