<svg width="40" height="40" viewBox="0 0 40 40" fill="none" xmlns="http://www.w3.org/2000/svg">
<path d="M8.88882 25.1855H4.44437C3.62617 25.1855 2.96289 25.8488 2.96289 26.667V32.593C2.96289 33.4112 3.62617 34.0744 4.44437 34.0744H8.88882C9.70702 34.0744 10.3703 33.4112 10.3703 32.593V26.667C10.3703 25.8488 9.70702 25.1855 8.88882 25.1855Z" fill="url(#paint0_linear_1_7559)"/>
<path d="M26.6666 22.2227H22.2222C21.404 22.2227 20.7407 22.8859 20.7407 23.7041V32.593C20.7407 33.4112 21.404 34.0745 22.2222 34.0745H26.6666C27.4848 34.0745 28.1481 33.4112 28.1481 32.593V23.7041C28.1481 22.8859 27.4848 22.2227 26.6666 22.2227Z" fill="url(#paint1_linear_1_7559)"/>
<path d="M17.778 19.2588H13.3335C12.5153 19.2588 11.8521 19.9221 11.8521 20.7403V32.5921C11.8521 33.4103 12.5153 34.0736 13.3335 34.0736H17.778C18.5962 34.0736 19.2595 33.4103 19.2595 32.5921V20.7403C19.2595 19.9221 18.5962 19.2588 17.778 19.2588Z" fill="url(#paint2_linear_1_7559)"/>
<path d="M35.5553 14.8145H31.1109C30.2927 14.8145 29.6294 15.4777 29.6294 16.2959V32.5922C29.6294 33.4104 30.2927 34.0737 31.1109 34.0737H35.5553C36.3735 34.0737 37.0368 33.4104 37.0368 32.5922V16.2959C37.0368 15.4777 36.3735 14.8145 35.5553 14.8145Z" fill="url(#paint3_linear_1_7559)"/>
<path d="M5.92739 22.2222C6.21946 22.2224 6.50498 22.1358 6.7477 21.9733L15.0341 16.4497L23.235 19.1833C23.496 19.2703 23.7761 19.2829 24.0439 19.2196C24.3117 19.1564 24.5566 19.0198 24.7511 18.8252L32.5926 10.9838V11.8519C32.5926 12.2448 32.7487 12.6216 33.0265 12.8994C33.3043 13.1772 33.6811 13.3333 34.0741 13.3333C34.467 13.3333 34.8438 13.1772 35.1216 12.8994C35.3995 12.6216 35.5555 12.2448 35.5555 11.8519V7.40741C35.5555 7.01449 35.3995 6.63767 35.1216 6.35984C34.8438 6.08201 34.467 5.92593 34.0741 5.92593H29.6296C29.2367 5.92593 28.8599 6.08201 28.582 6.35984C28.3042 6.63767 28.1481 7.01449 28.1481 7.40741C28.1481 7.80032 28.3042 8.17714 28.582 8.45497C28.8599 8.7328 29.2367 8.88889 29.6296 8.88889H30.4977L23.3037 16.083L15.2836 13.4093C15.0694 13.3384 14.842 13.3171 14.6184 13.347C14.3948 13.377 14.181 13.4574 13.993 13.5822L5.10415 19.5081C4.8395 19.6846 4.63866 19.9415 4.53135 20.2409C4.42404 20.5404 4.41594 20.8664 4.50827 21.1708C4.6006 21.4751 4.78844 21.7417 5.04401 21.9311C5.29958 22.1205 5.60931 22.2225 5.92739 22.2222Z" fill="url(#paint4_linear_1_7559)"/>
<defs>
<linearGradient id="paint0_linear_1_7559" x1="2.96289" y1="25.1855" x2="10.5436" y2="25.3359" gradientUnits="userSpaceOnUse">
<stop stop-color="#28CCC2"/>
<stop offset="1" stop-color="#2887CC"/>
</linearGradient>
<linearGradient id="paint1_linear_1_7559" x1="20.7407" y1="22.2227" x2="28.3228" y2="22.3355" gradientUnits="userSpaceOnUse">
<stop stop-color="#28CCC2"/>
<stop offset="1" stop-color="#2887CC"/>
</linearGradient>
<linearGradient id="paint2_linear_1_7559" x1="11.8521" y1="19.2588" x2="19.4347" y2="19.349" gradientUnits="userSpaceOnUse">
<stop stop-color="#28CCC2"/>
<stop offset="1" stop-color="#2887CC"/>
</linearGradient>
<linearGradient id="paint3_linear_1_7559" x1="29.6294" y1="14.8145" x2="37.2125" y2="14.8839" gradientUnits="userSpaceOnUse">
<stop stop-color="#28CCC2"/>
<stop offset="1" stop-color="#2887CC"/>
</linearGradient>
<linearGradient id="paint4_linear_1_7559" x1="4.44449" y1="5.92593" x2="36.2305" y2="7.37041" gradientUnits="userSpaceOnUse">
<stop stop-color="#28CCC2"/>
<stop offset="1" stop-color="#2887CC"/>
</linearGradient>
</defs>
</svg>
