<svg width="48" height="48" viewBox="0 0 48 48" fill="none" xmlns="http://www.w3.org/2000/svg">
<path d="M35.32 19.0596L21.18 33.1996L12.7 24.7196L15.52 21.8996L21.18 27.5596L32.5 16.2396L35.32 19.0596ZM8 23.9996C8 19.3396 10.04 15.1596 13.24 12.2396L18 16.9996V4.99961H6L10.4 9.39961C6.48 13.0396 4 18.2196 4 23.9996C4 34.3796 11.9 42.8996 22 43.8996V39.8596C14.12 38.8796 8 32.1396 8 23.9996ZM44 23.9996C44 13.6196 36.1 5.09961 26 4.09961V8.13961C33.88 9.11961 40 15.8596 40 23.9996C40 28.6596 37.96 32.8396 34.76 35.7596L30 30.9996V42.9996H42L37.6 38.5996C41.52 34.9596 44 29.7796 44 23.9996Z" fill="url(#paint0_linear_1_1005)"/>
<defs>
<linearGradient id="paint0_linear_1_1005" x1="4" y1="4.09961" x2="44.9287" y2="5.07878" gradientUnits="userSpaceOnUse">
<stop stop-color="#28CCC2"/>
<stop offset="1" stop-color="#2887CC"/>
</linearGradient>
</defs>
</svg>
