<svg width="34" height="38" viewBox="0 0 34 38" fill="none" xmlns="http://www.w3.org/2000/svg">
<path fill-rule="evenodd" clip-rule="evenodd" d="M22.9182 27.5937C22.0486 26.7422 20.0921 26.7898 18.5198 26.8274C18.0955 26.8374 17.6948 26.8474 17.329 26.8399C17.2315 26.8375 17.1353 26.8165 17.0456 26.7781L10.287 23.8506C9.74695 23.6169 7.8893 23.6419 6.89133 23.6561L6.86203 23.657V35.6593C6.86203 35.7077 6.86076 35.7553 6.8582 35.802L7.2268 35.7912C8.7757 35.7452 10.3773 35.6985 11.8845 36.0149L20.1546 37.75L32.6172 30.409C32.6313 30.4006 32.6458 30.3934 32.6603 30.3855C33.7406 29.8412 33.9879 29.0508 34.0052 28.4839C34.0107 28.0536 33.9034 27.6294 33.6938 27.2536C33.4843 26.8777 33.1798 26.5634 32.8109 26.342C32.292 26.0397 31.4382 25.8227 30.316 26.5047L24.8059 29.8521C24.704 30.1627 24.5287 30.4441 24.2949 30.6724C23.7624 31.1916 22.9488 31.4445 21.812 31.4446C21.7455 31.4446 21.678 31.4437 21.6089 31.442H17.5536C17.3557 31.44 17.1665 31.36 17.0273 31.2193C16.888 31.0786 16.8099 30.8887 16.8099 30.6907C16.8099 30.4928 16.888 30.3029 17.0273 30.1622C17.1665 30.0215 17.3557 29.9415 17.5536 29.9395H21.6383C22.7021 29.9687 23.1021 29.7363 23.2462 29.5964C23.3227 29.5212 23.4245 29.3855 23.4245 29.0652C23.4266 28.4089 23.2609 27.929 22.9182 27.5927V27.5937ZM14.2151 17.9384C15.6643 19.3861 17.5102 20.3717 19.5194 20.7705C21.5286 21.1694 23.611 20.9636 25.5033 20.1793C27.3956 19.3949 29.0129 18.0671 30.1508 16.3637C31.2886 14.6604 31.8959 12.6579 31.8959 10.6095C31.8959 8.56101 31.2886 6.55855 30.1508 4.85519C29.0129 3.15182 27.3956 1.82403 25.5033 1.03965C23.611 0.255259 21.5286 0.0494946 19.5194 0.44836C17.5102 0.847225 15.6643 1.83281 14.2151 3.28055C10.1741 7.3218 10.1741 13.8972 14.2151 17.9384ZM20.8594 16.1516C19.3322 15.8877 17.9141 14.9641 17.5021 13.173C17.4789 13.0765 17.475 12.9762 17.4908 12.8782C17.5065 12.7801 17.5415 12.6861 17.5938 12.6017C17.6461 12.5172 17.7147 12.444 17.7955 12.3862C17.8763 12.3284 17.9677 12.2872 18.0645 12.265C18.1613 12.2428 18.2616 12.24 18.3595 12.2568C18.4574 12.2736 18.551 12.3096 18.6349 12.3628C18.7188 12.416 18.7913 12.4854 18.8482 12.5668C18.9051 12.6482 18.9453 12.7401 18.9665 12.8371C19.3209 14.3789 20.9181 14.8815 22.3438 14.6961C23.1617 14.5892 23.7867 14.1769 24.0157 13.5917C24.1906 13.1452 24.0947 12.6684 23.7456 12.2495C23.1804 11.5708 22.5673 11.4789 21.7186 11.351C21.2399 11.2791 20.6973 11.1982 20.1322 10.9904C20.1244 10.9878 20.1166 10.9845 20.1088 10.9812C18.7481 10.4302 17.9467 9.36836 17.9651 8.14125C17.9838 6.88664 18.8387 5.76305 20.1427 5.27969C20.3756 5.19263 20.6153 5.12521 20.8594 5.07812V3.96094C20.8614 3.76301 20.9414 3.57387 21.0821 3.43463C21.2228 3.29538 21.4127 3.21727 21.6107 3.21727C21.8086 3.21727 21.9985 3.29538 22.1392 3.43463C22.2799 3.57387 22.3599 3.76301 22.362 3.96094V5.05914C23.7461 5.30367 24.9291 6.27789 25.5026 7.79305C25.5731 7.97938 25.5667 8.18609 25.4848 8.36771C25.4029 8.54933 25.2522 8.69097 25.0659 8.76148C24.8795 8.83199 24.6728 8.82559 24.4912 8.74369C24.3096 8.66179 24.1679 8.5111 24.0974 8.32477C23.5195 6.79875 22.1406 6.14102 20.6653 6.6875C19.9583 6.94961 19.477 7.5432 19.4677 8.16344C19.4588 8.76109 19.8827 9.265 20.6616 9.58422C21.0794 9.73523 21.4983 9.79789 21.9416 9.86469C22.892 10.0074 23.9691 10.1685 24.9003 11.2871C25.6056 12.1344 25.7932 13.1737 25.4148 14.1387C24.9827 15.2423 23.907 16.007 22.5376 16.1855C22.4794 16.193 22.4208 16.1997 22.3618 16.2056V17.2566C22.3628 17.3559 22.3441 17.4544 22.3068 17.5464C22.2695 17.6385 22.2143 17.7222 22.1445 17.7928C22.0746 17.8634 21.9915 17.9194 21.8998 17.9576C21.8081 17.9959 21.7098 18.0156 21.6105 18.0156C21.5112 18.0156 21.4129 17.9959 21.3212 17.9576C21.2296 17.9194 21.1464 17.8634 21.0765 17.7928C21.0067 17.7222 20.9515 17.6385 20.9142 17.5464C20.8769 17.4544 20.8582 17.3559 20.8592 17.2566V16.1516H20.8594ZM5.35938 35.6588V23.5312C5.35907 23.217 5.23413 22.9158 5.01198 22.6935C4.78983 22.4713 4.4886 22.3463 4.17438 22.3459H1.17914C0.864912 22.3463 0.563672 22.4713 0.341515 22.6935C0.119358 22.9157 -0.00556995 23.217 -0.00585938 23.5312V35.6589C-0.00554927 35.9731 0.119388 36.2744 0.341543 36.4966C0.563697 36.7188 0.864926 36.8438 1.17914 36.8442H4.17453C4.48873 36.8438 4.78993 36.7187 5.01206 36.4965C5.23418 36.2743 5.35909 35.973 5.35938 35.6588Z" fill="url(#paint0_linear_1_7553)"/>
<defs>
<linearGradient id="paint0_linear_1_7553" x1="-0.00585938" y1="0.250072" x2="34.7987" y2="1.00149" gradientUnits="userSpaceOnUse">
<stop stop-color="#28CCC2"/>
<stop offset="1" stop-color="#2887CC"/>
</linearGradient>
</defs>
</svg>
