<svg width="200" height="44" viewBox="0 0 200 44" fill="none" xmlns="http://www.w3.org/2000/svg">
<rect x="0.5" y="0.5" width="199" height="43" rx="15.5" fill="white"/>
<rect x="0.5" y="0.5" width="199" height="43" rx="15.5" stroke="url(#paint0_linear_535_123)"/>
<path d="M58.6062 27.056C58.4569 27.1627 58.2115 27.3067 57.8702 27.488C57.5289 27.6587 57.1129 27.8133 56.6222 27.952C56.1422 28.08 55.6089 28.1387 55.0222 28.128C54.1049 28.1067 53.2835 27.9413 52.5582 27.632C51.8329 27.3227 51.2142 26.896 50.7022 26.352C50.2009 25.808 49.8169 25.184 49.5502 24.48C49.2835 23.776 49.1502 23.0293 49.1502 22.24C49.1502 21.344 49.2835 20.528 49.5502 19.792C49.8275 19.0453 50.2222 18.4053 50.7342 17.872C51.2462 17.328 51.8489 16.9067 52.5422 16.608C53.2462 16.3093 54.0249 16.16 54.8782 16.16C55.6355 16.16 56.3129 16.2613 56.9102 16.464C57.5075 16.6667 57.9982 16.8907 58.3822 17.136L57.5502 19.12C57.2729 18.9173 56.9102 18.7147 56.4622 18.512C56.0142 18.2987 55.5075 18.192 54.9422 18.192C54.3022 18.192 53.7049 18.368 53.1502 18.72C52.6062 19.0613 52.1689 19.5307 51.8382 20.128C51.5075 20.7147 51.3422 21.3813 51.3422 22.128C51.3422 22.9067 51.4915 23.5947 51.7902 24.192C52.0995 24.7893 52.5315 25.2587 53.0862 25.6C53.6515 25.9307 54.3129 26.096 55.0702 26.096C55.6889 26.096 56.2222 26 56.6702 25.808C57.1182 25.6053 57.4702 25.392 57.7262 25.168L58.6062 27.056ZM64.7548 16.288C65.6828 16.288 66.4775 16.4427 67.1388 16.752C67.8108 17.0613 68.3228 17.504 68.6748 18.08C69.0375 18.656 69.2188 19.344 69.2188 20.144C69.2188 20.6133 69.1441 21.0827 68.9948 21.552C68.8561 22.0213 68.6268 22.448 68.3068 22.832C67.9975 23.216 67.5761 23.5253 67.0428 23.76C66.5201 23.9947 65.8748 24.112 65.1068 24.112H63.4268V28H61.3308V16.288H64.7548ZM65.0908 22.08C65.6028 22.08 65.9975 21.9787 66.2748 21.776C66.5628 21.5627 66.7601 21.312 66.8668 21.024C66.9841 20.736 67.0428 20.4693 67.0428 20.224C67.0428 20.064 67.0161 19.8773 66.9628 19.664C66.9201 19.4507 66.8295 19.2427 66.6908 19.04C66.5628 18.8267 66.3708 18.656 66.1148 18.528C65.8588 18.3893 65.5281 18.32 65.1228 18.32H63.4268V22.08H65.0908ZM67.1868 23.376L70.1308 28H67.6828L64.6748 23.424L67.1868 23.376ZM72.5102 16.288H80.3982V18.32H74.6062V21.104H79.7422V23.136H74.6062V25.968H80.6222V28H72.5102V16.288ZM82.1279 28L87.3759 15.808H87.4879L92.7359 28H90.3039L86.7999 19.104L88.3199 18.08L84.2079 28H82.1279ZM85.5839 23.712H89.3279L90.0639 25.488H84.9439L85.5839 23.712ZM93.1467 16.288H101.003V18.32H98.0747V28H95.9627V18.32H93.1467V16.288ZM103.642 16.288H111.53V18.32H105.738V21.104H110.874V23.136H105.738V25.968H111.754V28H103.642V16.288ZM116.954 16.288H119.05V25.968H124.682V28H116.954V16.288ZM126.445 22.144C126.445 21.344 126.594 20.5813 126.893 19.856C127.202 19.1307 127.629 18.4907 128.173 17.936C128.727 17.3813 129.362 16.9493 130.077 16.64C130.802 16.32 131.575 16.16 132.397 16.16C133.218 16.16 133.991 16.32 134.717 16.64C135.442 16.9493 136.082 17.3813 136.637 17.936C137.191 18.4907 137.623 19.1307 137.933 19.856C138.253 20.5813 138.413 21.3493 138.413 22.16C138.413 22.9813 138.253 23.7547 137.933 24.48C137.623 25.1947 137.191 25.8293 136.637 26.384C136.082 26.928 135.442 27.3547 134.717 27.664C133.991 27.9733 133.218 28.128 132.397 28.128C131.586 28.128 130.818 27.9733 130.093 27.664C129.367 27.3547 128.727 26.928 128.173 26.384C127.629 25.84 127.202 25.2107 126.893 24.496C126.594 23.7707 126.445 22.9867 126.445 22.144ZM128.621 22.16C128.621 22.8853 128.791 23.5467 129.133 24.144C129.474 24.7413 129.933 25.216 130.509 25.568C131.095 25.92 131.751 26.096 132.477 26.096C133.181 26.096 133.815 25.92 134.381 25.568C134.957 25.216 135.41 24.7413 135.741 24.144C136.071 23.5467 136.237 22.8853 136.237 22.16C136.237 21.4133 136.066 20.7413 135.725 20.144C135.383 19.5467 134.925 19.072 134.349 18.72C133.783 18.368 133.143 18.192 132.429 18.192C131.703 18.192 131.053 18.368 130.477 18.72C129.911 19.072 129.458 19.5467 129.117 20.144C128.786 20.7413 128.621 21.4133 128.621 22.16ZM150.533 26.864C150.384 27.0133 150.16 27.1627 149.861 27.312C149.573 27.4613 149.237 27.6 148.853 27.728C148.48 27.8453 148.096 27.9413 147.701 28.016C147.307 28.0907 146.933 28.128 146.581 28.128C145.323 28.128 144.229 27.8827 143.301 27.392C142.373 26.9013 141.659 26.2293 141.157 25.376C140.656 24.5227 140.405 23.5467 140.405 22.448C140.405 21.4027 140.565 20.4853 140.885 19.696C141.205 18.9067 141.643 18.2507 142.197 17.728C142.763 17.2053 143.403 16.816 144.117 16.56C144.843 16.2933 145.605 16.16 146.405 16.16C147.141 16.16 147.819 16.24 148.437 16.4C149.056 16.56 149.584 16.7627 150.021 17.008L149.333 18.976C149.131 18.8587 148.869 18.7467 148.549 18.64C148.229 18.5333 147.904 18.448 147.573 18.384C147.243 18.3093 146.944 18.272 146.677 18.272C145.824 18.272 145.088 18.4267 144.469 18.736C143.851 19.0347 143.381 19.4827 143.061 20.08C142.741 20.6773 142.581 21.4027 142.581 22.256C142.581 23.024 142.752 23.6907 143.093 24.256C143.435 24.8213 143.909 25.2587 144.517 25.568C145.136 25.8773 145.84 26.032 146.629 26.032C146.981 26.032 147.312 26.0053 147.621 25.952C147.931 25.888 148.192 25.7973 148.405 25.68V24.016H146.293V21.984H150.533V26.864Z" fill="url(#paint1_linear_535_123)"/>
<defs>
<linearGradient id="paint0_linear_535_123" x1="0" y1="0" x2="202.391" y2="21.8988" gradientUnits="userSpaceOnUse">
<stop stop-color="#28CCC2"/>
<stop offset="1" stop-color="#2887CC"/>
</linearGradient>
<linearGradient id="paint1_linear_535_123" x1="48" y1="14" x2="151.986" y2="30.0894" gradientUnits="userSpaceOnUse">
<stop stop-color="#28CCC2"/>
<stop offset="1" stop-color="#2887CC"/>
</linearGradient>
</defs>
</svg>
